<svg width="795" height="616" viewBox="0 0 795 616" fill="none" xmlns="http://www.w3.org/2000/svg">
<rect width="795" height="616" fill="#F5F5F5"/>
<g id="undraw_ride_a_bicycle_re_6tjy 1" clip-path="url(#clip0_0_1)">
<path id="PruebaB" d="M795 579.5C795 584.166 794.97 588.788 794.91 593.101C794.851 597.415 794.763 601.335 794.652 604.634C794.542 607.933 794.41 610.548 794.266 612.327C794.121 614.106 793.966 615.014 793.809 615H1.1905C0.874758 615 0.571947 611.259 0.348686 604.601C0.125425 597.944 0 588.915 0 579.5C0 570.085 0.125425 561.056 0.348686 554.399C0.571947 547.741 0.874758 544 1.1905 544H793.809C793.966 543.986 794.121 544.894 794.266 546.673C794.41 548.452 794.542 551.067 794.652 554.366C794.763 557.665 794.851 561.585 794.91 565.899C794.97 570.212 795 574.834 795 579.5Z" fill="#CCCCCC"/>
<g id="back">
<g id="backgraund">
<path id="Vector" d="M615.249 232.48C612.89 230.113 610.086 228.236 606.999 226.957C603.912 225.679 600.602 225.024 597.26 225.03V210.213C597.262 206.822 596.596 203.464 595.3 200.331C594.003 197.197 592.101 194.35 589.703 191.952C587.306 189.555 584.459 187.653 581.325 186.356C578.192 185.059 574.834 184.393 571.442 184.395V173.229H577.587C580.216 173.229 582.737 172.185 584.595 170.326C586.454 168.468 587.498 165.947 587.498 163.318C587.498 160.69 586.454 158.169 584.595 156.31C582.737 154.452 580.216 153.407 577.587 153.407H571.442V145.66H568.403V153.407H561.069C558.44 153.407 555.92 154.452 554.061 156.31C552.202 158.169 551.158 160.69 551.158 163.318C551.158 165.947 552.202 168.468 554.061 170.326C555.92 172.185 558.44 173.229 561.069 173.229H568.403V184.395H549.473C547.673 184.395 545.89 184.75 544.226 185.438C542.563 186.127 541.051 187.137 539.778 188.41C538.505 189.684 537.495 191.195 536.806 192.859C536.117 194.522 535.763 196.305 535.763 198.105V225.03H531.386C524.631 225.03 517.942 226.36 511.701 228.944C505.46 231.529 499.79 235.318 495.013 240.095C490.237 244.871 486.448 250.542 483.863 256.783C481.278 263.024 479.948 269.713 479.949 276.468V312.451C470.601 315.144 462.143 320.286 455.451 327.346C448.758 334.405 444.074 343.125 441.883 352.603H419.335V329.821H405.666V320.241H414.057C416.686 320.241 419.207 319.197 421.065 317.338C422.924 315.479 423.968 312.958 423.968 310.33C423.968 307.701 422.924 305.18 421.065 303.322C419.207 301.463 416.686 300.419 414.057 300.419H405.666V294.13H402.629V300.419H397.539C394.911 300.419 392.39 301.463 390.531 303.322C388.673 305.18 387.628 307.701 387.628 310.33C387.628 312.958 388.673 315.479 390.531 317.338C392.39 319.197 394.911 320.241 397.539 320.241H402.629V329.862C399.139 330.064 395.858 331.592 393.459 334.134C391.059 336.676 389.721 340.039 389.719 343.535V352.685C376.588 353.411 364.234 359.139 355.195 368.692C346.156 378.244 341.119 390.896 341.118 404.047V614.593H479.949V614.594H622.698V250.468C622.705 247.126 622.05 243.817 620.771 240.729C619.493 237.642 617.616 234.838 615.249 232.48Z" fill="url(#paint0_linear_0_1)"/>
<path id="Vector_2" d="M328.148 225.025V210.217C328.148 206.826 327.481 203.469 326.183 200.336C324.886 197.203 322.984 194.357 320.586 191.96C318.189 189.562 315.342 187.66 312.21 186.363C309.077 185.065 305.72 184.397 302.329 184.397V169.926H308.341C310.97 169.926 313.491 168.881 315.349 167.023C317.208 165.164 318.252 162.643 318.252 160.015C318.252 157.386 317.208 154.865 315.349 153.007C313.491 151.148 310.97 150.104 308.341 150.104H302.329V145.668H299.292V150.104H291.823C289.194 150.104 286.674 151.148 284.815 153.007C282.956 154.865 281.912 157.386 281.912 160.015C281.912 162.643 282.956 165.164 284.815 167.023C286.674 168.881 289.194 169.926 291.823 169.926H299.292V184.397H280.352C278.551 184.397 276.767 184.752 275.104 185.441C273.44 186.13 271.928 187.141 270.654 188.414C269.381 189.688 268.371 191.199 267.682 192.863C266.992 194.527 266.638 196.31 266.638 198.111V225.025H262.267C248.623 225.025 235.538 230.445 225.89 240.093C216.242 249.74 210.822 262.825 210.822 276.469V309.802C202.176 313.527 194.641 319.427 188.95 326.927C183.259 334.427 179.606 343.273 178.346 352.603H150.217V329.821H136.548V316.937H141.508C144.136 316.937 146.657 315.893 148.516 314.034C150.374 312.176 151.419 309.655 151.419 307.026C151.419 304.398 150.374 301.877 148.516 300.018C146.657 298.16 144.136 297.115 141.508 297.115H136.548V294.13H133.511V297.115H124.99C122.361 297.115 119.84 298.16 117.982 300.018C116.123 301.877 115.079 304.398 115.079 307.026C115.079 309.655 116.123 312.176 117.982 314.034C119.84 315.893 122.361 316.937 124.99 316.937H133.511V329.862C130.021 330.064 126.74 331.592 124.34 334.134C121.94 336.676 120.603 340.039 120.601 343.535V352.685C107.47 353.411 95.1158 359.139 86.0769 368.692C77.0379 378.244 72.0006 390.896 72 404.047V614.593H353.588V250.464C353.588 247.124 352.93 243.816 351.652 240.729C350.373 237.643 348.499 234.838 346.137 232.476C343.775 230.114 340.97 228.24 337.884 226.961C334.797 225.683 331.489 225.025 328.148 225.025Z" fill="url(#paint1_linear_0_1)"/>
<path id="Vector_3" d="M707.852 184.401C722.598 184.401 734.552 172.447 734.552 157.701C734.552 142.954 722.598 131 707.852 131C693.105 131 681.151 142.954 681.151 157.701C681.151 172.447 693.105 184.401 707.852 184.401Z" fill="#FF3F84" fill-opacity="0.74"/>
<path id="Vector_4" d="M712.118 180.66C711.363 178.19 709.903 175.995 707.917 174.344C705.931 172.694 703.505 171.66 700.939 171.369C700.881 171.361 700.826 171.372 700.768 171.368C700.694 171.345 700.618 171.328 700.541 171.316C688.33 169.737 674.235 175.577 669.145 187.154C667.904 185.461 666.269 184.095 664.381 183.175C662.494 182.256 660.411 181.809 658.312 181.875C655.606 182.055 653.022 183.065 650.91 184.767C648.799 186.469 647.263 188.78 646.512 191.386C646.432 191.705 646.456 192.041 646.58 192.346C646.704 192.65 646.921 192.907 647.201 193.08C648.008 193.763 648.963 194.248 649.991 194.496C652.208 194.966 654.434 195.396 656.667 195.787C661.025 196.55 665.406 197.166 669.809 197.637C678.748 198.595 687.742 198.935 696.727 198.654C699.72 198.561 702.606 198.462 705.348 197.141C707.343 196.156 709.047 194.668 710.293 192.825C711.467 191.054 712.239 189.047 712.555 186.945C712.87 184.843 712.721 182.698 712.118 180.66Z" fill="url(#paint2_linear_0_1)"/>
</g>
<path id="Vector_5" d="M98.1154 443.834H117.1V428.646H98.1154V443.834Z" fill="white"/>
<path id="Vector_6" d="M66.9803 443.834H85.9651V428.646H66.9803V443.834Z" fill="white"/>
<path id="Vector_7" d="M98.1154 482.563H117.1V467.375H98.1154V482.563Z" fill="white"/>
<path id="Vector_8" d="M98.1154 521.292H117.1V506.104H98.1154V521.292Z" fill="white"/>
<path id="Vector_9" d="M66.9803 521.292H85.9651V506.104H66.9803V521.292Z" fill="white"/>
<path id="Vector_10" d="M66.9803 560.021H85.9651V544.833H66.9803V560.021Z" fill="white"/>
<path id="Vector_11" d="M208.461 400.928H269.971V396.372H208.461V400.928Z" fill="white"/>
<path id="Vector_12" d="M208.461 429.026H269.971V424.47H208.461V429.026Z" fill="white"/>
<path id="Vector_13" d="M208.461 457.123H269.971V452.567H208.461V457.123Z" fill="white"/>
<path id="Vector_14" d="M367.233 482.563H386.218V467.375H367.233V482.563Z" fill="white"/>
<path id="Vector_15" d="M336.098 521.292H355.083V506.104H336.098V521.292Z" fill="white"/>
<path id="Vector_16" d="M367.233 560.021H386.218V544.833H367.233V560.021Z" fill="white"/>
<path id="Vector_17" d="M336.098 560.021H355.083V544.833H336.098V560.021Z" fill="white"/>
<path id="Vector_18" d="M367.233 598.75H386.218V583.562H367.233V598.75Z" fill="white"/>
<path id="Vector_19" d="M336.098 598.75H355.083V583.562H336.098V598.75Z" fill="white"/>
<path id="Vector_20" d="M579.709 257.576H532.946V267.487H579.709V257.576Z" fill="white"/>
<path id="Vector_21" d="M579.709 287.309H532.946V297.22H579.709V287.309Z" fill="white"/>
<path id="Vector_22" d="M579.709 317.041H532.946V326.952H579.709V317.041Z" fill="white"/>
<path id="Vector_23" d="M579.709 346.774H532.946V356.685H579.709V346.774Z" fill="white"/>
<path id="Vector_24" d="M579.709 376.507H532.946V386.418H579.709V376.507Z" fill="white"/>
<path id="Vector_25" d="M579.709 406.239H532.946V416.15H579.709V406.239Z" fill="white"/>
<path id="Vector_26" d="M724.625 145.163C723.87 142.693 722.409 140.498 720.423 138.848C718.437 137.197 716.012 136.163 713.445 135.872C713.387 135.864 713.332 135.875 713.275 135.871C713.2 135.849 713.124 135.831 713.047 135.819C700.836 134.241 686.741 140.081 681.652 151.657C680.41 149.964 678.775 148.599 676.888 147.679C675 146.759 672.917 146.313 670.819 146.378C668.113 146.558 665.528 147.568 663.416 149.27C661.305 150.972 659.769 153.283 659.018 155.889C658.938 156.208 658.962 156.544 659.086 156.849C659.21 157.154 659.428 157.411 659.708 157.583C660.514 158.267 661.47 158.752 662.497 158.999C664.715 159.469 666.94 159.899 669.174 160.29C673.531 161.053 677.912 161.67 682.316 162.14C691.254 163.098 700.248 163.438 709.234 163.158C712.226 163.064 715.112 162.965 717.854 161.644C719.849 160.659 721.553 159.172 722.799 157.329C723.974 155.557 724.746 153.55 725.061 151.448C725.376 149.347 725.227 147.201 724.625 145.163Z" fill="#F0F0F0"/>
<path id="Vector_27" d="M236.395 544.094H67.6573V546.094H236.395V544.094Z" fill="#3F3D56"/>
<path id="Vector_28" d="M236.395 564.094H67.6573V566.094H236.395V564.094Z" fill="#3F3D56"/>
<path id="Vector_29" d="M710.395 544.094H541.657V546.094H710.395V544.094Z" fill="#3F3D56"/>
<path id="Vector_30" d="M710.395 564.094H541.657V566.094H710.395V564.094Z" fill="#3F3D56"/>
</g>
<g id="frond-wheel">
<path id="Vector_31" d="M620.689 613.567C598.146 613.567 576.109 606.882 557.365 594.358C538.621 581.833 524.012 564.032 515.385 543.205C506.758 522.378 504.501 499.461 508.899 477.351C513.297 455.241 524.153 434.931 540.093 418.991C556.033 403.051 576.343 392.195 598.452 387.797C620.562 383.399 643.48 385.657 664.307 394.283C685.134 402.91 702.935 417.519 715.459 436.263C727.984 455.007 734.668 477.044 734.668 499.587C734.634 529.806 722.615 558.777 701.247 580.145C679.879 601.513 650.908 613.532 620.689 613.567ZM627 426.488C606.544 426.488 580.237 402.227 563.228 413.591C546.22 424.956 532.964 441.109 525.136 460.008C517.307 478.906 515.259 499.702 519.25 519.764C523.241 539.827 533.091 558.256 547.555 572.72C562.02 587.185 600.626 562.009 620.689 566C640.751 569.991 641.369 602.968 660.268 595.14C679.167 587.312 695.32 574.056 706.684 557.047C718.049 540.039 724.115 520.043 724.115 499.587C724.084 472.166 713.177 445.877 693.788 426.488C674.398 407.099 654.421 426.519 627 426.488Z" fill="#3F3D56"/>
</g>
<g id="back-wheel">
<path id="Vector_32" d="M152.249 615.12C130.888 615.12 110.008 608.786 92.247 596.919C74.4865 585.052 60.6439 568.185 52.4696 548.45C44.2953 528.716 42.1566 507 46.3238 486.05C50.491 465.101 60.777 445.857 75.8811 430.753C90.9851 415.649 110.229 405.363 131.179 401.195C152.129 397.028 173.844 399.167 193.578 407.341C213.313 415.516 230.18 429.358 242.047 447.119C253.915 464.879 260.249 485.76 260.249 507.12C260.216 535.754 248.827 563.205 228.58 583.452C208.333 603.699 180.882 615.088 152.249 615.12ZM152.249 409.12C132.866 409.12 129.116 436.35 113 447.119C96.884 457.887 69.1258 451.71 61.7084 469.617C54.291 487.524 52.3503 507.229 56.1316 526.239C59.913 545.249 69.2466 562.711 82.9521 576.417C96.6577 590.122 114.12 599.456 133.13 603.237C152.14 607.019 158.093 568.984 176 561.566C193.907 554.149 222.964 577.682 233.733 561.566C244.501 545.45 250.249 526.503 250.249 507.12C250.219 481.138 239.885 456.228 221.513 437.856C203.14 419.484 178.231 409.15 152.249 409.12Z" fill="#3F3D56"/>
</g>
<g id="women-ride">
<path id="Vector_33" d="M336.098 482.563H355.083V467.375H336.098V482.563Z" fill="white"/>
<path id="Vector_34" d="M367.233 521.292H386.218V506.104H367.233V521.292Z" fill="white"/>
<path id="Vector_35" d="M309.242 462.575L319.986 471.566L360.55 433.48L344.693 420.211L309.242 462.575Z" fill="#FFB6B6"/>
<path id="Vector_36" d="M341.028 459.534L318.275 443.829L378.183 348.848C334.763 323.61 304.902 292.823 280.538 259.005C272.258 247.592 267.21 234.309 278.762 225.747C279.302 225.347 279.856 224.968 280.425 224.61C293.597 216.402 289.321 228.703 307.376 222.662L323.69 240.065L358.937 274.361L419.058 312.739C431.149 320.457 434.504 336.691 426.552 348.999C426.132 349.649 425.684 350.28 425.21 350.893L341.028 459.534Z" fill="#2F2E41"/>
<path id="Vector_37" d="M310.603 455.252L329.441 469.196L323.008 476.883L330.207 502.939C330.562 504.226 330.497 505.593 330.021 506.841C329.545 508.088 328.683 509.15 327.56 509.873C326.437 510.595 325.113 510.94 323.78 510.857C322.448 510.773 321.177 510.266 320.153 509.409L298.792 491.533L301.474 480.848L293.673 487.248L285.619 480.508L310.603 455.252Z" fill="#2F2E41"/>
<path id="Vector_38" d="M284.311 360.348L168.115 401.9L171.483 411.316L287.678 369.764L284.311 360.348Z" fill="#3F3D56"/>
<path id="Vector_39" d="M311.485 521.085L281.209 494.943C279.102 493.123 277.805 490.541 277.602 487.764C277.399 484.987 278.307 482.244 280.127 480.136C281.946 478.029 284.528 476.731 287.305 476.527C290.081 476.323 292.825 477.23 294.933 479.048L325.209 505.19C326.253 506.091 327.11 507.189 327.73 508.421C328.35 509.653 328.721 510.995 328.822 512.371C328.923 513.746 328.752 515.128 328.319 516.437C327.886 517.747 327.199 518.958 326.297 520.002C325.396 521.046 324.298 521.902 323.065 522.522C321.833 523.141 320.491 523.511 319.115 523.612C317.74 523.713 316.358 523.541 315.049 523.107C313.739 522.674 312.528 521.986 311.485 521.085Z" fill="#3F3D56"/>
<path id="Vector_40" d="M483.47 219.067C481.556 219.727 479.522 219.959 477.509 219.748C475.496 219.536 473.554 218.886 471.819 217.843C470.085 216.8 468.601 215.389 467.47 213.71C466.34 212.031 465.592 210.124 465.278 208.125L357.124 180.275L374.762 161.768L477.773 192.015C481.167 191.711 484.555 192.662 487.294 194.689C490.034 196.715 491.935 199.676 492.637 203.011C493.339 206.345 492.794 209.822 491.104 212.781C489.415 215.74 486.698 217.977 483.47 219.067Z" fill="#FFB6B6"/>
<path id="Vector_41" d="M319.168 89.7592C319.168 89.7592 301.582 91.7967 301.898 112.062C302.214 132.327 345.322 178.492 352.048 186.141C358.773 193.79 425.892 197.698 425.892 197.698L446.859 179.262L384.69 158.316L319.168 89.7592Z" fill="#6C63FF"/>
<path id="Vector_42" d="M283.496 184.877L279.529 203.485C279.529 203.485 272.308 218.972 273.71 223.11C275.098 227.225 337.592 249.595 337.592 249.595C337.592 249.595 342.947 221.692 351.881 202.87L283.496 184.877Z" fill="#FFB6B6"/>
<path id="Vector_43" d="M483.782 475.919L447.689 493.163C445.177 494.363 442.29 494.516 439.664 493.588C437.039 492.66 434.889 490.727 433.689 488.215C432.488 485.702 432.335 482.815 433.263 480.19C434.191 477.564 436.124 475.415 438.636 474.214L474.729 456.971C477.242 455.77 480.128 455.617 482.754 456.545C485.38 457.473 487.529 459.406 488.729 461.918C489.93 464.431 490.083 467.318 489.155 469.943C488.227 472.569 486.294 474.719 483.782 475.919Z" fill="#3F3D56"/>
<path id="Vector_44" d="M625.709 523.567C634.546 523.567 641.709 516.403 641.709 507.567C641.709 498.73 634.546 491.567 625.709 491.567C616.872 491.567 609.709 498.73 609.709 507.567C609.709 516.403 616.872 523.567 625.709 523.567Z" fill="#3F3D56"/>
<path id="Vector_45" d="M152.248 523.12C161.085 523.12 168.248 515.957 168.248 507.12C168.248 498.283 161.085 491.12 152.248 491.12C143.412 491.12 136.248 498.283 136.248 507.12C136.248 515.957 143.412 523.12 152.248 523.12Z" fill="#3F3D56"/>
<path id="Vector_46" d="M369.248 523.673C379.495 523.673 387.802 515.367 387.802 505.12C387.802 494.873 379.495 486.567 369.248 486.567C359.002 486.567 350.695 494.873 350.695 505.12C350.695 515.367 359.002 523.673 369.248 523.673Z" fill="#3F3D56"/>
<path id="Vector_47" d="M156.357 505.986L149.061 499.147L279.296 360.214L511.708 290.657L627.053 493.091L618.365 498.042L506.957 302.518L284.748 369.021L156.357 505.986Z" fill="#3F3D56"/>
<path id="Vector_48" d="M353.492 499.678H255.219V509.678H353.492V499.678Z" fill="#3F3D56"/>
<path id="Vector_49" d="M287.022 312.334H277.022V364.617H287.022V312.334Z" fill="#3F3D56"/>
<path id="Vector_50" d="M481.467 194.03L471.951 197.103L504.574 298.124L514.09 295.051L481.467 194.03Z" fill="#3F3D56"/>
<path id="Vector_51" d="M286.024 358.039L277.394 363.094L359.394 503.094L368.024 498.039L286.024 358.039Z" fill="#3F3D56"/>
<path id="Vector_52" d="M555.888 378.43L379.896 498.442L385.53 506.703L561.522 386.692L555.888 378.43Z" fill="#3F3D56"/>
<path id="Vector_53" d="M301.209 318.567H261.209C258.424 318.567 255.754 317.46 253.784 315.491C251.815 313.522 250.709 310.851 250.709 308.067C250.709 305.282 251.815 302.611 253.784 300.642C255.754 298.673 258.424 297.567 261.209 297.567H301.209C303.994 297.567 306.665 298.673 308.634 300.642C310.603 302.611 311.709 305.282 311.709 308.067C311.709 310.851 310.603 313.522 308.634 315.491C306.665 317.46 303.994 318.567 301.209 318.567Z" fill="#6C63FF"/>
<path id="Vector_54" d="M496.209 205.567H456.209C453.424 205.567 450.754 204.46 448.784 202.491C446.815 200.522 445.709 197.851 445.709 195.067C445.709 192.282 446.815 189.611 448.784 187.642C450.754 185.673 453.424 184.567 456.209 184.567H496.209C498.994 184.567 501.665 185.673 503.634 187.642C505.603 189.611 506.709 192.282 506.709 195.067C506.709 197.851 505.603 200.522 503.634 202.491C501.665 204.46 498.994 205.567 496.209 205.567Z" fill="#6C63FF"/>
<path id="Vector_55" d="M754.18 551.395L755.324 525.676C767.248 519.302 780.548 515.935 794.069 515.868C775.46 531.082 777.786 560.409 765.17 580.867C761.186 587.218 755.824 592.591 749.482 596.588C743.139 600.585 735.978 603.103 728.53 603.957L712.958 613.491C710.821 601.579 711.292 589.345 714.339 577.633C717.385 565.92 722.935 555.007 730.605 545.646C734.96 540.437 739.954 535.797 745.468 531.836C749.198 541.67 754.18 551.395 754.18 551.395Z" fill="#F2F2F2"/>
<path id="Vector_56" d="M347.808 74.8749C363.907 72.1379 374.739 56.8684 372.002 40.7696C369.265 24.6708 353.995 13.8389 337.896 16.5759C321.797 19.3129 310.966 34.5823 313.702 50.6811C316.439 66.78 331.709 77.6119 347.808 74.8749Z" fill="#FFB6B6"/>
<path id="Vector_57" d="M525.869 328.593L492.475 258.103L492.927 257.889C495.241 256.792 497.749 256.163 500.306 256.035C502.864 255.908 505.422 256.286 507.833 257.147C510.245 258.008 512.463 259.336 514.362 261.054C516.26 262.773 517.801 264.849 518.898 267.163L535.594 302.408C536.691 304.723 537.321 307.23 537.448 309.788C537.575 312.345 537.198 314.903 536.336 317.314C535.475 319.726 534.147 321.944 532.429 323.843C530.71 325.741 528.635 327.282 526.32 328.379L525.869 328.593Z" fill="#3F3D56"/>
<path id="Vector_58" d="M423.791 340.983C419.586 340.971 415.498 339.604 412.133 337.083C408.769 334.563 406.307 331.023 405.115 326.992L404.973 326.512L479.785 304.439L479.926 304.918C480.651 307.374 480.885 309.949 480.615 312.496C480.344 315.042 479.575 317.51 478.351 319.759C477.126 322.009 475.471 323.995 473.479 325.604C471.487 327.213 469.198 328.415 466.742 329.139L429.336 340.176C427.536 340.709 425.668 340.981 423.791 340.983Z" fill="#3F3D56"/>
<path id="Vector_59" d="M433.406 462.464L447.019 459.106L440.726 403.809L420.634 408.767L433.406 462.464Z" fill="#FFB6B6"/>
<path id="Vector_60" d="M426.959 446.596L448.204 436.697L451.888 446.02L478.221 452.13C479.522 452.432 480.692 453.141 481.561 454.155C482.429 455.169 482.951 456.434 483.05 457.765C483.149 459.097 482.82 460.425 482.111 461.556C481.402 462.687 480.349 463.562 479.108 464.053L453.204 474.291L445.094 466.835L446.995 476.745L437.229 480.605L426.959 446.596Z" fill="#2F2E41"/>
<path id="Vector_61" d="M447.782 412.637L418.756 430.043L387.798 320.712C337.578 320.283 291.143 314.66 253.23 297.342C240.385 291.526 234.672 276.144 240.468 262.986C240.739 262.371 241.033 261.767 241.35 261.175C248.73 247.522 263.038 239.504 275.733 225.315L338.709 248.567L334.196 265.525L405.433 269.101C419.759 269.82 430.712 282.264 429.897 296.894C429.854 297.667 429.778 298.437 429.669 299.204L447.782 412.637Z" fill="#2F2E41"/>
<path id="Vector_62" d="M324.641 74.5894L343.994 84.7086C345.063 85.1353 345.972 85.885 346.595 86.853C347.218 87.8211 347.523 88.9594 347.469 90.1093L352.51 110.281L370.247 147.825C370.247 147.825 374.869 167.806 366.049 186.671C357.229 205.537 337.709 252.567 337.709 252.567C324.978 283.06 220.476 259.512 247.709 233.567C250.949 230.479 269.162 204.403 275.826 202.904L292.176 109.339C293 104.399 294.907 99.7024 297.761 95.5864C300.614 91.4704 304.342 88.0368 308.679 85.5317C311.299 84.0508 313.727 83.174 315.392 83.6215C319.185 84.5055 320.978 75.9146 324.641 74.5894Z" fill="#6C63FF"/>
<path id="Vector_63" d="M492.72 198.566C490.96 199.566 489.003 200.167 486.985 200.329C484.968 200.49 482.939 200.207 481.043 199.5C479.147 198.793 477.429 197.678 476.01 196.235C474.591 194.792 473.505 193.055 472.83 191.147L361.402 183.611L375.346 162.182L482.157 173.018C485.438 172.097 488.943 172.41 492.008 173.9C495.072 175.389 497.484 177.951 498.786 181.1C500.088 184.25 500.19 187.767 499.072 190.986C497.954 194.205 495.694 196.902 492.72 198.566Z" fill="#FFB6B6"/>
<path id="Vector_64" d="M307.484 101.595C307.484 101.595 290.571 106.824 294.599 126.687C298.628 146.551 349.474 184.024 357.489 190.309C365.503 196.594 432.2 188.122 432.2 188.122L449.428 166.153L384.472 156.968L307.484 101.595Z" fill="#6C63FF"/>
<path id="Vector_65" d="M534.367 303.522C540.324 301.319 542.437 292.185 539.086 283.12C535.734 274.054 528.188 268.491 522.231 270.693C516.274 272.895 514.161 282.029 517.512 291.095C520.864 300.16 528.41 305.724 534.367 303.522Z" fill="#6C63FF"/>
</g>
<g id="cabello">
<path id="Vector_66" d="M374.391 35.9436C369.926 38.143 364.87 34.9553 360.964 31.7852L362.362 32.9677C355.584 39.6989 352.482 49.3148 351.015 58.7644C349.546 68.2041 349.471 77.8431 347.596 87.22C345.719 96.587 341.724 106.02 334.139 111.824C323.979 119.597 309.851 119.25 297.26 117.028C297.092 116.996 296.936 116.972 296.768 116.94C300.049 107.142 301.317 96.7833 300.496 86.4839C297.234 96.8471 291.597 106.305 284.033 114.104C275.678 111.897 267.515 109.017 259.624 105.493C254.519 103.207 249.014 100.065 247.548 94.6642C246.079 89.3046 249.304 83.6338 253.66 80.1952C258.015 76.7566 263.385 74.9307 268.361 72.4617C273.33 70.0041 278.236 66.5227 280.182 61.3229C284.67 49.3614 271.394 35.8252 276.393 24.0609C278.858 18.2758 285.009 15.0796 290.796 12.6047C299.631 8.83627 308.71 5.6694 317.972 3.12573C326.103 0.891348 334.598 -0.867411 342.918 0.456889C351.237 1.78118 359.426 6.74895 362.496 14.6055C367.501 16.2398 372.815 18.0852 376.059 22.2503C379.302 26.4056 379.118 33.6184 374.391 35.9436Z" fill="#2F2E41"/>
</g>
</g>
<defs>
<linearGradient id="paint0_linear_0_1" x1="481.908" y1="145.66" x2="481.908" y2="614.594" gradientUnits="userSpaceOnUse">
<stop stop-color="#949753"/>
<stop offset="1" stop-color="#FD6584" stop-opacity="0"/>
</linearGradient>
<linearGradient id="paint1_linear_0_1" x1="212.794" y1="145.668" x2="212.794" y2="614.593" gradientUnits="userSpaceOnUse">
<stop stop-color="#949753"/>
<stop offset="1" stop-color="#FD6584" stop-opacity="0"/>
</linearGradient>
<linearGradient id="paint2_linear_0_1" x1="679.591" y1="171.062" x2="679.591" y2="198.749" gradientUnits="userSpaceOnUse">
<stop stop-color="#949753"/>
<stop offset="1" stop-color="#FD6584" stop-opacity="0"/>
</linearGradient>
<clipPath id="clip0_0_1">
<rect width="794.67" height="615.311" fill="white"/>
</clipPath>
</defs>
</svg>
